<svg width="52" height="52" viewBox="0 0 52 52" fill="none" xmlns="http://www.w3.org/2000/svg">
<path d="M27.625 39.299V32.5H24.375V39.299C23.2908 39.6823 22.377 40.4366 21.7951 41.4285C21.2132 42.4204 21.0008 43.5861 21.1952 44.7196C21.3897 45.853 21.9786 46.8812 22.8578 47.6224C23.7371 48.3637 24.85 48.7702 26 48.7702C27.15 48.7702 28.263 48.3637 29.1422 47.6224C30.0214 46.8812 30.6103 45.853 30.8048 44.7196C30.9993 43.5861 30.7868 42.4204 30.2049 41.4285C29.623 40.4366 28.7092 39.6823 27.625 39.299Z" fill="#6D17E1"/>
<path d="M42.2499 19.5C40.8128 19.5043 39.4177 19.9852 38.2832 20.8674C37.1487 21.7496 36.3389 22.9832 35.9807 24.375H16.0192C15.6237 22.8432 14.6831 21.5082 13.3737 20.6203C12.0643 19.7324 10.476 19.3525 8.90656 19.5518C7.33711 19.7512 5.89424 20.5161 4.84841 21.7031C3.80258 22.8902 3.22559 24.418 3.22559 26C3.22559 27.5821 3.80258 29.1098 4.84841 30.2969C5.89424 31.484 7.33711 32.2489 8.90656 32.4482C10.476 32.6476 12.0643 32.2677 13.3737 31.3797C14.6831 30.4918 15.6237 29.1568 16.0192 27.625H35.9807C36.2867 28.7992 36.9158 29.864 37.7966 30.6986C38.6773 31.5332 39.7745 32.1041 40.9634 32.3465C42.1523 32.5889 43.3854 32.493 44.5226 32.0698C45.6597 31.6467 46.6555 30.9131 47.3967 29.9525C48.138 28.9918 48.595 27.8426 48.7159 26.6352C48.8368 25.4279 48.6168 24.2108 48.0808 23.1223C47.5448 22.0337 46.7143 21.1172 45.6836 20.477C44.6529 19.8367 43.4633 19.4982 42.2499 19.5ZM9.74993 29.25C9.10714 29.25 8.47879 29.0594 7.94433 28.7023C7.40987 28.3452 6.99331 27.8376 6.74732 27.2437C6.50134 26.6499 6.43698 25.9964 6.56238 25.366C6.68778 24.7355 6.99732 24.1564 7.45184 23.7019C7.90636 23.2474 8.48545 22.9379 9.11589 22.8125C9.74633 22.6871 10.3998 22.7514 10.9937 22.9974C11.5875 23.2434 12.0951 23.66 12.4522 24.1944C12.8093 24.7289 12.9999 25.3572 12.9999 26C12.9986 26.8616 12.6558 27.6875 12.0466 28.2967C11.4374 28.9059 10.6115 29.2487 9.74993 29.25ZM42.2499 29.25C41.6071 29.25 40.9788 29.0594 40.4443 28.7023C39.9099 28.3452 39.4933 27.8376 39.2473 27.2437C39.0013 26.6499 38.937 25.9964 39.0624 25.366C39.1878 24.7355 39.4973 24.1564 39.9518 23.7019C40.4064 23.2474 40.9855 22.9379 41.6159 22.8125C42.2463 22.6871 42.8998 22.7514 43.4937 22.9974C44.0875 23.2434 44.5951 23.66 44.9522 24.1944C45.3093 24.7289 45.4999 25.3572 45.4999 26C45.4986 26.8616 45.1558 27.6875 44.5466 28.2967C43.9374 28.9059 43.1115 29.2487 42.2499 29.25Z" fill="#6D17E1"/>
<path d="M30.875 8.12498C30.8787 7.23039 30.6361 6.35203 30.1739 5.58608C29.7117 4.82013 29.0477 4.19614 28.2545 3.78242C27.4613 3.36871 26.5696 3.18123 25.6769 3.24052C24.7843 3.2998 23.9252 3.60357 23.1937 4.11855C22.4622 4.63353 21.8865 5.33987 21.5296 6.16021C21.1728 6.98056 21.0486 7.88328 21.1705 8.76952C21.2925 9.65577 21.656 10.4914 22.2212 11.1848C22.7864 11.8782 23.5315 12.4028 24.375 12.701V19.5H27.625V12.701C28.5735 12.3681 29.3955 11.7493 29.9775 10.9297C30.5596 10.1102 30.8732 9.13022 30.875 8.12498Z" fill="#6D17E1"/>
</svg>
